<svg width="42" height="41" viewBox="0 0 42 41" fill="none" xmlns="http://www.w3.org/2000/svg">
<g clip-path="url(#clip0_316_883)">
<path d="M8.47144 7.65222L35.0671 34.2477" stroke="#CD3529" stroke-width="3.13937" stroke-miterlimit="2.613"/>
<path fill-rule="evenodd" clip-rule="evenodd" d="M8.20984 3.56384L12.9716 8.29508C12.9716 8.29508 13.4593 9.30051 12.2075 11.4066C10.1014 12.658 9.09305 12.1674 9.09305 12.1674L4.36182 7.40559L8.20984 3.56384Z" fill="#CD3529"/>
<path fill-rule="evenodd" clip-rule="evenodd" d="M5.15527 7.77808L9.09288 11.8379C9.09288 11.8379 9.76449 12.3567 10.5579 11.8076C10.5579 11.8076 9.82539 11.899 9.39802 11.6242L5.15527 7.77808ZM11.9928 11.1971L11.4129 11.0139L10.9549 11.1054L10.9855 10.4645L9.5508 8.63282L11.3823 10.1897L11.993 10.1594L11.84 10.6171L11.9928 11.1971Z" fill="white"/>
<path d="M33.5547 7.65222L6.95923 34.2477" stroke="#CD3529" stroke-width="3.13937" stroke-miterlimit="2.613"/>
<path fill-rule="evenodd" clip-rule="evenodd" d="M33.8171 3.56384L29.0553 8.29508C29.0553 8.29508 28.5673 9.30051 29.8193 11.4066C31.9251 12.6582 32.9337 12.1676 32.9337 12.1676L37.6647 7.4058L33.8171 3.56384Z" fill="#CD3529"/>
<path fill-rule="evenodd" clip-rule="evenodd" d="M36.8708 7.77808L32.9332 11.8379C32.9332 11.8379 32.262 12.3567 31.4682 11.8076C31.4682 11.8076 32.2007 11.899 32.6283 11.6242L36.8708 7.77808ZM30.0339 11.1971L30.6139 11.0139L31.0718 11.1054L31.0406 10.4645L32.4755 8.63282L30.6442 10.1897L30.0339 10.1594L30.1863 10.6171L30.0339 11.1971Z" fill="white"/>
<path fill-rule="evenodd" clip-rule="evenodd" d="M22.4311 9.32758L24.843 8.30268V6.16582L21.0008 4.88391L17.1584 6.16582V8.30268L19.5703 9.32758H22.4311Z" fill="#CD3529" stroke="white" stroke-width="0.274799" stroke-miterlimit="2.613"/>
<path d="M24.1765 6.70915C24.1765 6.70915 23.8102 6.3429 23.0777 6.3429M23.0777 6.3429H18.9293M18.9293 6.3429C18.1968 6.3429 17.8306 6.70915 17.8306 6.70915M24.1765 7.76566C24.1765 7.76566 23.8102 8.13192 23.0777 8.13192M23.0777 8.13213H18.9293M18.9293 8.13213C18.1968 8.13213 17.8306 7.76587 17.8306 7.76587" stroke="white" stroke-width="0.274799" stroke-miterlimit="2.613"/>
<path fill-rule="evenodd" clip-rule="evenodd" d="M23.4468 3.17448C23.4468 4.52734 22.3501 5.62423 20.9973 5.62423C19.6444 5.62423 18.5475 4.52755 18.5475 3.17448C18.5475 1.82163 19.6442 0.724731 20.9973 0.724731C22.3501 0.724731 23.4468 1.82163 23.4468 3.17448ZM20.9973 1.94971C20.6724 1.94971 20.3608 2.07877 20.1311 2.3085C19.9014 2.53823 19.7723 2.84981 19.7723 3.17469C19.7723 3.49958 19.9014 3.81116 20.1311 4.04088C20.3608 4.27061 20.6724 4.39967 20.9973 4.39967C21.3222 4.39967 21.6337 4.27061 21.8635 4.04088C22.0932 3.81116 22.2223 3.49958 22.2223 3.17469C22.2223 2.84981 22.0932 2.53823 21.8635 2.3085C21.6337 2.07877 21.3222 1.94971 20.9973 1.94971ZM20.9814 31.7325L23.5065 33.7906C30.6494 33.4702 33.03 28.159 33.03 28.159C33.259 27.2434 32.6179 26.8309 32.6179 26.8309L35.5484 23.2599L35.6857 28.2049C35.6857 28.2049 34.8615 27.7928 34.2567 29.1356C34.2567 29.1356 32.7094 34.7067 24.1931 37.3622C24.1931 37.3622 22.0569 37.9574 20.9812 39.8806C19.9052 37.9574 17.7692 37.3622 17.7692 37.3622C9.25269 34.7067 7.70541 29.1356 7.70541 29.1356C7.10076 27.7928 6.27637 28.2049 6.27637 28.2049L6.41387 23.2599L9.34416 26.8309C9.34416 26.8309 8.7031 27.2434 8.93206 28.159C8.93206 28.159 11.313 33.4702 18.4558 33.7906L20.9814 31.7325Z" fill="#CD3529"/>
<path fill-rule="evenodd" clip-rule="evenodd" d="M20.9973 33.6991V38.8276C20.9973 38.8276 20.6539 36.7213 19.1886 36.4923C19.1886 36.4923 10.718 35.2563 7.92501 27.8844C7.92501 27.8844 11.9543 35.7598 20.3335 35.7598L20.9973 33.6991ZM6.65796 24.0988L7.19228 26.6935L6.776 27.5102L7.42145 27.1515L7.83334 27.5638L7.74188 26.9225L8.56607 26.6935L7.60458 26.5104L6.65796 24.0988ZM35.3057 24.0988L34.7714 26.6935L35.1877 27.5102L34.5424 27.1515L34.1305 27.5638L34.222 26.9225L33.3976 26.6935L34.3593 26.5104L35.3057 24.0988ZM21.629 35.7596C30.0079 35.7596 34.0372 27.8842 34.0372 27.8842C30.5287 36.08 21.6334 36.6753 21.6334 36.6753L21.629 35.7596Z" fill="white"/>
<path d="M32.4535 20.6956C32.4535 27.0229 27.3242 32.1522 20.9972 32.1522C14.6699 32.1522 9.54077 27.0229 9.54077 20.6956C9.54077 14.3684 14.6699 9.23926 20.9972 9.23926C27.3242 9.23926 32.4535 14.3684 32.4535 20.6956Z" stroke="black" stroke-width="1.28212" stroke-miterlimit="2.613"/>
<path fill-rule="evenodd" clip-rule="evenodd" d="M31.2915 24.3893C31.2915 24.3893 31.7191 23.2901 31.7191 22.7715C31.7191 22.7715 32.177 23.0764 32.4821 23.9008C32.4821 23.9008 32.4821 24.4805 31.9022 25.6099C31.9022 25.6099 31.7494 24.8472 31.2915 24.3893ZM30.4941 26.1193C30.4941 26.1193 31.106 25.1113 31.196 24.6003C31.196 24.6003 31.5941 24.9803 31.7511 25.8449C31.7511 25.8449 31.6506 26.4161 30.8834 27.4276C30.8832 27.4278 30.8656 26.6494 30.4941 26.1193ZM29.4079 27.6844C29.4079 27.6844 30.1854 26.7978 30.3631 26.3102C30.3631 26.3102 30.6889 26.7537 30.6937 27.6325C30.6937 27.6325 30.4955 28.1775 29.5644 29.0408C29.5644 29.0408 29.6818 28.2714 29.4079 27.6844ZM31.7768 22.5471C31.7768 22.5471 32.007 21.3904 31.9171 20.8793C31.9171 20.8793 32.421 21.1009 32.8645 21.8596C32.8645 21.8596 32.965 22.4303 32.5901 23.6434C32.5901 23.6434 32.3074 22.9186 31.7768 22.5471ZM28.0667 29.0374C28.0667 29.0374 28.9866 28.2993 29.2461 27.8499C29.2461 27.8499 29.4897 28.3432 29.3421 29.2095C29.3421 29.2095 29.0523 29.7114 27.9851 30.3999C27.9849 30.3999 28.2344 29.663 28.0667 29.0374ZM26.5109 30.1366C26.5109 30.1366 27.545 29.5697 27.8786 29.172C27.8786 29.172 28.0326 29.7001 27.7367 30.528C27.7367 30.528 27.3639 30.9719 26.194 31.4646C26.1942 31.4644 26.5674 30.7817 26.5109 30.1366ZM24.788 30.9493C24.788 30.9493 25.9047 30.5703 26.302 30.2369C26.302 30.2369 26.3625 30.7838 25.9271 31.5475C25.9271 31.5475 25.4832 31.9198 24.2451 32.2019C24.2451 32.2017 24.7317 31.5943 24.788 30.9493ZM22.9502 31.4506C22.9502 31.4506 24.1155 31.2712 24.5649 31.0115C24.5649 31.0115 24.5293 31.5609 23.9684 32.2369C23.9684 32.2369 23.4661 32.5272 22.198 32.5893C22.198 32.5893 22.7821 32.0759 22.9502 31.4506ZM21.053 31.6247C21.053 31.6247 22.2319 31.6504 22.7191 31.473C22.7191 31.473 22.5892 32.0077 21.9188 32.5759C21.9188 32.5759 21.3742 32.7745 20.1145 32.6159C20.1145 32.6159 20.7794 32.2111 21.053 31.6247Z" fill="white" stroke="black" stroke-width="0.0366259" stroke-miterlimit="2.613" stroke-linecap="round" stroke-linejoin="round"/>
<path fill-rule="evenodd" clip-rule="evenodd" d="M30.4939 26.1193C30.4939 26.1193 31.1058 25.1114 31.1958 24.6003C31.1958 24.6003 31.5939 24.9803 31.7509 25.8449C31.7509 25.8449 31.6504 26.4161 30.8832 27.4276C30.8829 27.4278 30.8654 26.6494 30.4939 26.1193ZM24.699 10.3825C24.699 10.3825 23.5998 9.95513 23.0812 9.95513C23.0812 9.95513 23.3866 9.4972 24.2105 9.19206C24.2105 9.19206 24.7905 9.19206 25.92 9.77179C25.92 9.77179 25.1569 9.92457 24.699 10.3825ZM26.4294 11.1803C26.4294 11.1803 25.4211 10.5684 24.91 10.4784C24.91 10.4784 25.2901 10.0805 26.1546 9.92332C26.1546 9.92332 26.726 10.0238 27.7373 10.791C27.7375 10.7908 26.9596 10.8086 26.4294 11.1803ZM27.9945 12.2659C27.9945 12.2659 27.108 11.4884 26.6203 11.3109C26.6203 11.3109 27.0638 10.9853 27.9426 10.9802C27.9426 10.9802 28.4876 11.1784 29.3505 12.1098C29.3505 12.1098 28.5812 11.9924 27.9945 12.2659ZM22.857 9.89737C22.857 9.89737 21.7003 9.66715 21.1892 9.75735C21.1892 9.75735 21.4104 9.25338 22.1691 8.80989C22.1691 8.80989 22.7403 8.70922 23.9529 9.08427C23.9531 9.08406 23.2283 9.36681 22.857 9.89737ZM29.3472 13.6073C29.3472 13.6073 28.609 12.6876 28.1596 12.4281C28.1596 12.4281 28.6529 12.1843 29.5196 12.3323C29.5196 12.3323 30.0215 12.6221 30.7096 13.6891C30.7096 13.6889 29.9727 13.4396 29.3472 13.6073ZM30.4468 15.1631C30.4468 15.1631 29.8794 14.1292 29.4822 13.7956C29.4822 13.7956 30.0102 13.6414 30.8377 13.9373C30.8377 13.9373 31.2821 14.3101 31.7747 15.4802C31.7745 15.48 31.0914 15.1066 30.4468 15.1631ZM31.2595 16.8862C31.2595 16.8862 30.8802 15.7694 30.5466 15.372C30.5466 15.372 31.0935 15.3115 31.8572 15.7471C31.8572 15.7471 32.2299 16.1912 32.5121 17.4293C32.5119 17.4291 31.9041 16.9427 31.2595 16.8862ZM31.7603 18.724C31.7603 18.724 31.5809 17.5585 31.3216 17.1091C31.3216 17.1091 31.8706 17.1445 32.547 17.7058C32.547 17.7058 32.8369 18.2077 32.8995 19.476C32.8995 19.476 32.3857 18.8916 31.7603 18.724ZM31.9344 20.6212C31.9344 20.6212 31.9602 19.4421 31.7827 18.9546C31.7827 18.9546 32.3174 19.085 32.8859 19.755C32.8859 19.755 33.0841 20.3 32.9258 21.5595C32.926 21.5595 32.5213 20.8948 31.9344 20.6212Z" fill="white" stroke="black" stroke-width="0.0366259" stroke-miterlimit="2.613" stroke-linecap="round" stroke-linejoin="round"/>
<path fill-rule="evenodd" clip-rule="evenodd" d="M26.4296 11.1802C26.4296 11.1802 25.4213 10.5682 24.9102 10.4782C24.9102 10.4782 25.2902 10.0803 26.1548 9.92317C26.1548 9.92317 26.7262 10.0236 27.7375 10.7909C27.7377 10.7907 26.9598 10.8085 26.4296 11.1802ZM10.7029 16.975C10.7029 16.975 10.2755 18.074 10.2755 18.5928C10.2755 18.5928 9.81756 18.2877 9.51241 17.4635C9.51241 17.4635 9.51241 16.8836 10.0924 15.7542C10.0924 15.7542 10.2449 16.5173 10.7029 16.975ZM11.5007 15.245C11.5007 15.245 10.8887 16.2534 10.7987 16.7643C10.7987 16.7643 10.4006 16.384 10.2435 15.5194C10.2435 15.5194 10.3441 14.9482 11.1112 13.9367C11.1112 13.9367 11.1292 14.7147 11.5007 15.245ZM12.5865 13.6799C12.5865 13.6799 11.809 14.5665 11.6315 15.0539C11.6315 15.0539 11.3058 14.6107 11.301 13.7318C11.301 13.7318 11.4992 13.1869 12.4303 12.3237C12.4303 12.3237 12.3127 13.0931 12.5865 13.6799ZM10.2179 18.8174C10.2179 18.8174 9.98771 19.974 10.0779 20.485C10.0779 20.485 9.57394 20.2638 9.13046 19.5051C9.13046 19.5051 9.02979 18.9342 9.40463 17.7211C9.40442 17.7211 9.68738 18.4459 10.2179 18.8174ZM13.9276 12.3271C13.9276 12.3271 13.0078 13.065 12.7485 13.5144C12.7485 13.5144 12.5046 13.0211 12.6524 12.1546C12.6524 12.1546 12.9423 11.6525 14.0094 10.9642C14.0094 10.9644 13.7602 11.7015 13.9276 12.3271ZM15.4837 11.2277C15.4837 11.2277 14.4498 11.7949 14.1162 12.1923C14.1162 12.1923 13.9619 11.6643 14.2579 10.8367C14.2579 10.8367 14.6306 10.3926 15.8008 9.89994C15.8006 9.89994 15.4272 10.5826 15.4837 11.2277ZM17.2066 10.415C17.2066 10.415 16.0898 10.794 15.6924 11.1276C15.6924 11.1276 15.6319 10.5806 16.0672 9.81706C16.0672 9.81706 16.5113 9.44431 17.7495 9.1624C17.7495 9.1624 17.2631 9.76997 17.2066 10.415ZM19.0446 9.91417C19.0446 9.91417 17.879 10.0935 17.4297 10.3528C17.4297 10.3528 17.4651 9.80387 18.0264 9.12744C18.0264 9.12744 18.5285 8.83758 19.7966 8.77521C19.7966 8.775 19.2122 9.2886 19.0446 9.91417ZM20.9418 9.73983C20.9418 9.73983 19.7629 9.71409 19.2752 9.89157C19.2752 9.89157 19.4054 9.35704 20.0755 8.78839C20.0755 8.78839 20.6205 8.58998 21.88 8.74863C21.88 8.74842 21.2153 9.15298 20.9418 9.73983Z" fill="white" stroke="black" stroke-width="0.0366259" stroke-miterlimit="2.613" stroke-linecap="round" stroke-linejoin="round"/>
<path fill-rule="evenodd" clip-rule="evenodd" d="M11.5008 15.245C11.5008 15.245 10.8888 16.2534 10.7988 16.7643C10.7988 16.7643 10.4007 16.384 10.2436 15.5194C10.2436 15.5194 10.3442 14.9483 11.1113 13.9368C11.1113 13.9368 11.1293 14.7147 11.5008 15.245ZM17.2954 30.9819C17.2954 30.9819 18.3944 31.4094 18.9132 31.4094C18.9132 31.4094 18.6079 31.8674 17.7837 32.1723C17.7837 32.1723 17.2038 32.1723 16.0744 31.5926C16.0744 31.5926 16.8375 31.4398 17.2954 30.9819ZM15.5652 30.1845C15.5652 30.1845 16.5734 30.796 17.0845 30.8864C17.0845 30.8864 16.7042 31.2845 15.8396 31.4415C15.8396 31.4415 15.2684 31.341 14.2569 30.5737C14.2569 30.5735 15.0349 30.5555 15.5652 30.1845ZM14.0001 29.0982C14.0001 29.0982 14.8867 29.8757 15.3743 30.0534C15.3743 30.0534 14.9309 30.3793 14.052 30.3837C14.052 30.3837 13.507 30.1859 12.6439 29.2544C12.6439 29.2544 13.4133 29.3722 14.0001 29.0982ZM19.1376 31.4672C19.1376 31.4672 20.2944 31.6974 20.8052 31.607C20.8052 31.607 20.584 32.111 19.8253 32.5545C19.8253 32.5545 19.2544 32.6553 18.0413 32.2805C18.0413 32.2805 18.7661 31.9978 19.1376 31.4672ZM12.6473 27.7571C12.6473 27.7571 13.3854 28.6769 13.8346 28.9364C13.8346 28.9364 13.3413 29.1801 12.4748 29.0325C12.4748 29.0325 11.9729 28.7426 11.2846 27.6755C11.2848 27.6753 12.0217 27.9247 12.6473 27.7571ZM11.5477 26.2012C11.5477 26.2012 12.1148 27.2349 12.5125 27.5685C12.5125 27.5685 11.9845 27.723 11.1567 27.427C11.1567 27.427 10.7126 27.0543 10.2199 25.8844C10.2201 25.8846 10.9028 26.2577 11.5477 26.2012ZM10.7352 24.4783C10.7352 24.4783 11.1142 25.5951 11.4478 25.9924C11.4478 25.9924 10.9007 26.0528 10.1372 25.6175C10.1372 25.6175 9.7645 25.1732 9.4828 23.9354C9.4828 23.9354 10.0904 24.4216 10.7352 24.4783ZM10.2342 22.6401C10.2342 22.6401 10.4135 23.8059 10.6728 24.2552C10.6728 24.2552 10.1236 24.2197 9.44722 23.6583C9.44722 23.6583 9.15735 23.1565 9.09498 21.8884C9.09519 21.8884 9.60879 22.4725 10.2342 22.6401ZM10.06 20.7429C10.06 20.7429 10.0343 21.9223 10.2118 22.4095C10.2118 22.4095 9.67723 22.2795 9.10858 21.6092C9.10858 21.6092 8.91018 21.0646 9.06882 19.8047C9.06861 19.8049 9.47317 20.4696 10.06 20.7429Z" fill="white" stroke="black" stroke-width="0.0366259" stroke-miterlimit="2.613" stroke-linecap="round" stroke-linejoin="round"/>
<path fill-rule="evenodd" clip-rule="evenodd" d="M15.5651 30.1844C15.5651 30.1844 16.5733 30.796 17.0844 30.8864C17.0844 30.8864 16.7041 31.2845 15.8395 31.4415C15.8395 31.4415 15.2683 31.341 14.2568 30.5737C14.2568 30.5735 15.0348 30.5555 15.5651 30.1844Z" fill="white" stroke="black" stroke-width="0.0366259" stroke-miterlimit="2.613" stroke-linecap="round" stroke-linejoin="round"/>
<path d="M20.9973 31.3184V33.1497M21.73 31.3184V33.1497M20.2645 31.3184V33.1497M20.9973 8.24158V10.0729M21.73 8.24158V10.0729M20.2645 8.24158V10.0729M31.6198 20.6956H33.4515M31.6198 19.9629H33.4515M31.6198 21.4282H33.4515M8.54297 20.6956H10.3745M8.54297 19.9629H10.3745M8.54297 21.4282H10.3745" stroke="black" stroke-width="0.824188" stroke-miterlimit="2.613" stroke-linecap="round"/>
<path d="M20.9973 31.3184V33.1497M21.73 31.3184V33.1497M20.2645 31.3184V33.1497M20.9973 8.24158V10.0729M21.73 8.24158V10.0729M20.2645 8.24158V10.0729M31.6198 20.6956H33.4515M31.6198 19.9629H33.4515M31.6198 21.4282H33.4515M8.54297 20.6956H10.3745M8.54297 19.9629H10.3745M8.54297 21.4282H10.3745" stroke="white" stroke-width="0.549389" stroke-miterlimit="2.613" stroke-linecap="round"/>
<path fill-rule="evenodd" clip-rule="evenodd" d="M21.2266 29.57C26.082 29.57 30.0181 25.6339 30.0181 20.7789C30.0181 15.9236 26.082 11.9877 21.2266 11.9877C16.3715 11.9877 12.4358 15.9238 12.4358 20.7789C12.4358 25.6341 16.3717 29.57 21.2266 29.57Z" fill="white"/>
<path fill-rule="evenodd" clip-rule="evenodd" d="M25.7057 14.6516L23.2028 15.9948V15.3339C23.2003 15.3072 23.1989 15.2805 23.1986 15.2537C23.1949 14.9166 22.8512 14.8555 22.5858 14.8584C22.4927 14.8653 22.3989 14.8735 22.3058 14.8833L22.283 14.8875L22.2847 14.8858C18.8994 15.2504 15.8157 17.4601 15.8157 17.4601L18.9291 25.2742C19.86 24.5875 20.4552 24.2976 20.4552 24.2976C20.8876 24.0754 21.5195 23.8006 21.5195 23.8006V25.1561C21.5195 26.887 22.481 26.3102 23.1587 25.9713C23.2503 25.9255 27.9642 23.504 27.9642 23.504L25.7057 14.6516Z" fill="black"/>
<path d="M27.9643 23.5038L25.8174 15.1012" stroke="black" stroke-width="0.136039" stroke-miterlimit="2.613"/>
<path fill-rule="evenodd" clip-rule="evenodd" d="M23.1862 19.1305C23.1458 18.9645 22.9786 18.8618 22.7287 18.8618C22.429 18.8618 21.9713 18.9266 21.9667 18.9273C20.942 19.1073 19.3181 19.4639 17.1833 20.7098L17.5232 21.5629C17.5232 21.5629 21.096 19.4547 22.8706 19.6039C23.0761 19.6386 23.1682 19.6661 23.1862 19.7713C23.1957 19.8036 23.1988 19.1437 23.1862 19.1305ZM22.5416 23.4812C22.5291 23.4839 22.5163 23.4851 22.5035 23.485C22.4705 23.4984 22.4357 23.512 22.3989 23.5258C21.6389 23.7922 21.5565 23.9166 21.5471 24.0306C21.5471 24.1026 21.5466 24.5469 21.5423 24.692C21.5757 24.4827 21.9196 24.3711 22.2584 24.2219C23.1414 23.8582 23.1153 23.8917 23.0927 23.5842C23.0353 23.4536 22.8551 23.436 22.5416 23.4812ZM27.7662 22.7276L27.5495 21.8789L23.2141 24.1489V24.2977C23.2067 24.4186 23.1931 24.5279 22.9087 24.7008C21.9665 25.1231 21.7028 25.1606 21.6387 25.3073C21.7572 25.4946 21.9822 25.5819 22.2972 25.4741C22.5104 25.4741 27.7662 22.7276 27.7662 22.7276ZM23.2082 17.5309C23.1915 17.3434 22.9303 17.3011 22.7067 17.3009C22.1869 17.3356 21.3914 17.4419 20.9971 17.7651V18.5434C21.3798 18.2937 21.982 18.1801 22.4602 18.1286L22.4598 18.1292L22.4696 18.1278C22.5284 18.1215 22.5854 18.1161 22.64 18.1115C22.8428 18.1035 23.1477 18.1328 23.18 18.3796C23.18 18.3796 23.2095 17.5346 23.2082 17.5309ZM23.2026 16.0393C23.2017 16.0594 23.2005 16.0702 23.1984 16.0656C23.1919 15.8113 22.9037 15.7456 22.6327 15.74C22.1798 15.7678 21.5347 15.848 20.9971 16.0709V16.8722C21.4115 16.7299 21.8387 16.6278 22.2727 16.5675L22.2706 16.5723C22.2706 16.5723 23.1961 16.3768 23.2082 16.8898C23.2143 16.9204 23.2026 16.0393 23.2026 16.0393ZM23.2147 16.7192L25.8984 15.3367L26.11 16.1653L23.2128 17.6588L23.2147 16.7192Z" fill="white"/>
<path fill-rule="evenodd" clip-rule="evenodd" d="M23.1844 18.6124L26.3286 17.021L26.5457 17.873C24.1315 19.0499 23.1842 19.6196 23.1842 19.6196V18.6124H23.1844ZM27.3596 21.0612L27.1606 20.2811C25.2267 21.156 23.2094 22.3475 23.1784 22.3659L23.1775 22.2307C23.169 22.1832 23.1489 22.144 23.1208 22.1248C22.8197 22.0243 21.6129 21.8627 18.3389 23.7922L18.6646 24.6097C18.6646 24.6097 21.9898 22.4203 23.0792 22.9071C23.1311 22.941 23.1757 22.9954 23.183 23.0808V23.0674V23.0808L23.1834 23.1327L23.1847 23.2828C24.062 22.6871 27.3596 21.0612 27.3596 21.0612ZM23.1844 21.5197L23.184 21.5124C23.184 21.5193 23.1844 21.5222 23.1844 21.5197ZM26.7363 18.6189C23.2083 20.3424 23.1844 20.6269 23.1844 20.6269V21.5197C24.2759 20.6955 26.9465 19.4421 26.9465 19.4421L26.7363 18.6189ZM23.0499 20.5603C22.6346 20.4377 21.2709 20.3514 17.769 22.3625L18.0727 23.1246C18.0727 23.1246 21.9078 20.8931 23.0752 21.3713C23.1141 21.3962 23.1832 21.4494 23.184 21.5124C23.1824 21.431 23.1836 20.7508 23.1819 20.7194C23.1819 20.6049 23.0811 20.5787 23.0499 20.5603Z" fill="white"/>
<path fill-rule="evenodd" clip-rule="evenodd" d="M20.9973 15.1094C18.1562 15.7827 15.8159 17.4599 15.8159 17.4599L17.1838 20.8929C17.1838 20.8929 19.908 19.2433 22.0118 18.9201L20.9973 15.1094Z" fill="#CD3529"/>
<path fill-rule="evenodd" clip-rule="evenodd" d="M20.7223 17.6965C20.7223 18.1397 20.5462 18.5648 20.2328 18.8782C19.9194 19.1916 19.4943 19.3676 19.0511 19.3676C18.6078 19.3676 18.1828 19.1916 17.8694 18.8782C17.556 18.5648 17.3799 18.1397 17.3799 17.6965C17.3799 17.2532 17.556 16.8282 17.8694 16.5147C18.1828 16.2013 18.6078 16.0253 19.0511 16.0253C19.4943 16.0253 19.9194 16.2013 20.2328 16.5147C20.5462 16.8282 20.7223 17.2532 20.7223 17.6965Z" fill="#E5CE79"/>
<path fill-rule="evenodd" clip-rule="evenodd" d="M18.7115 16.7015C18.7077 16.717 18.7004 16.7281 18.7098 16.7435H18.7253C18.7305 16.749 18.7234 16.7555 18.7224 16.7609C18.7305 16.7691 18.7353 16.7555 18.7427 16.7563C18.7527 16.771 18.7372 16.7747 18.7335 16.7875C18.7305 16.7848 18.7253 16.7848 18.7207 16.7848C18.7389 16.803 18.6943 16.8352 18.7253 16.858C18.7517 16.8561 18.7253 16.8957 18.7557 16.8911C18.7565 16.9166 18.7904 16.9076 18.804 16.9131C18.8086 16.9093 18.8059 16.9039 18.8067 16.8992L18.8308 16.8976C18.8308 16.8938 18.8352 16.8911 18.8371 16.8884L18.8482 16.8928C18.8538 16.8798 18.862 16.8607 18.8793 16.8691L18.8812 16.8664C18.8885 16.8903 18.9068 16.8635 18.9187 16.8754C18.9271 16.8699 18.9361 16.8681 18.9425 16.8708C18.9463 16.8653 18.939 16.8561 18.9317 16.8534C18.9335 16.8461 18.939 16.8396 18.9425 16.8333C18.9536 16.8488 18.9683 16.8333 18.98 16.8444C18.9735 16.8314 18.9901 16.827 18.9955 16.8178C19.0066 16.8243 19.0066 16.8536 19.0286 16.8427C19.0286 16.8455 19.0323 16.8471 19.0304 16.8511C19.0397 16.8547 19.0587 16.8555 19.0568 16.84C19.056 16.8373 19.0597 16.8365 19.0614 16.8337C19.0796 16.8566 19.0999 16.8017 19.1035 16.843C19.1154 16.8411 19.1227 16.8473 19.132 16.8365C19.1137 16.8072 19.1669 16.8116 19.1401 16.7879C19.142 16.7714 19.1629 16.7689 19.1585 16.7504C19.1669 16.7486 19.1713 16.735 19.1759 16.7287C19.1786 16.7203 19.1696 16.7094 19.1759 16.7002C19.1943 16.6918 19.1916 16.7184 19.1952 16.7287C19.1989 16.7268 19.2016 16.7224 19.2063 16.7241L19.2042 16.7414C19.2209 16.7423 19.2079 16.7626 19.2153 16.771C19.2253 16.7888 19.2298 16.8092 19.2282 16.8296C19.2456 16.8369 19.2519 16.8689 19.2749 16.8478C19.2849 16.8524 19.2858 16.8651 19.2877 16.8762C19.2795 16.8827 19.2575 16.8626 19.2594 16.8846L19.2722 16.8919C19.2458 16.9085 19.2559 16.9476 19.2173 16.9468C19.2092 16.9604 19.2027 16.9788 19.1845 16.9834C19.1828 16.9953 19.191 17.0246 19.1698 17.0236C19.1671 17.0236 19.1642 17.0227 19.1625 17.0255L19.1761 17.0365C19.1477 17.0255 19.1487 17.065 19.1186 17.0539C19.1004 17.0786 19.0545 17.0577 19.0507 17.0979C19.0516 17.1079 19.0418 17.1033 19.0353 17.1044C19.0298 17.0989 19.0382 17.0868 19.0271 17.0824C19.016 17.0824 19.0097 17.0943 19.0005 17.0962L19.0024 17.0981C19.0016 17.109 18.9813 17.109 18.9894 17.1201L19.0049 17.1136C18.9921 17.1236 19.0049 17.1429 18.9913 17.1556C18.9997 17.1814 18.9685 17.1849 18.9693 17.208C18.9647 17.2209 18.9518 17.2142 18.9428 17.219C18.9392 17.2243 18.9419 17.2318 18.9457 17.2364C18.9492 17.2218 18.9721 17.231 18.9739 17.2144C19.0016 17.2082 18.9829 17.1826 19.0024 17.1688C19.0106 17.1531 19.0114 17.1341 19.0133 17.1157C19.0307 17.1029 19.0288 17.1322 19.0443 17.123C19.0801 17.1276 19.0572 17.0755 19.0947 17.0853C19.1039 17.0698 19.1276 17.0899 19.1324 17.0679C19.147 17.0663 19.156 17.0514 19.1717 17.0497C19.159 17.0606 19.1535 17.078 19.1627 17.0935C19.1839 17.1046 19.1581 17.1349 19.1847 17.142V17.1485C19.1774 17.1475 19.1682 17.1349 19.1608 17.1447C19.1627 17.1529 19.1627 17.1667 19.1562 17.1751C19.1646 17.1778 19.1673 17.163 19.1719 17.1594C19.1803 17.1724 19.1857 17.1586 19.1958 17.1594C19.2196 17.1366 19.1694 17.1255 19.1849 17.1071C19.1857 17.0897 19.1629 17.0851 19.1703 17.0677C19.1943 17.0547 19.2152 17.0366 19.2316 17.0148C19.2278 17.011 19.2215 17.0064 19.227 17.0018L19.2335 16.9945C19.2299 16.9918 19.2226 16.9853 19.2316 16.9817C19.2362 16.9733 19.2481 16.9798 19.2506 16.9798C19.2471 16.9662 19.2644 16.9706 19.2665 16.9616C19.2893 16.9608 19.3176 16.9855 19.3352 16.9581C19.3509 16.9635 19.3699 16.9551 19.3856 16.9599C19.3783 16.9727 19.3626 16.9863 19.3653 17.0058C19.3517 17.015 19.359 17.0598 19.3306 17.0414C19.3184 17.0443 19.3159 17.0435 19.3086 17.0499C19.3105 17.0443 19.305 17.0407 19.3023 17.037L19.2979 17.0527C19.2803 17.0543 19.2594 17.0518 19.2475 17.0353L19.2402 17.0388C19.2448 17.0462 19.251 17.0554 19.2605 17.0543C19.2475 17.0617 19.2657 17.0681 19.2697 17.0746C19.2741 17.0709 19.286 17.0738 19.2843 17.0635C19.2981 17.0665 19.3117 17.0681 19.3199 17.0573L19.3262 17.0499C19.3335 17.0665 19.3096 17.0746 19.3153 17.092C19.2849 17.1094 19.317 17.1397 19.3061 17.1625C19.3134 17.168 19.3216 17.1598 19.3243 17.1533C19.3086 17.1397 19.3362 17.124 19.317 17.1123C19.327 17.0939 19.3316 17.0656 19.3482 17.0527L19.3544 17.0591C19.3572 17.0537 19.359 17.047 19.3609 17.0416C19.371 17.0353 19.3737 17.0583 19.381 17.0437C19.3829 17.0345 19.38 17.0271 19.3745 17.0171L19.3829 17.0198C19.3783 17.0062 19.3902 16.9897 19.3986 16.9823C19.3967 17.0024 19.4095 16.9888 19.4185 16.9978L19.4231 16.9888C19.4296 16.9888 19.4277 16.9989 19.4361 16.9951C19.4398 16.9932 19.4379 16.9878 19.4379 16.984C19.4453 16.9832 19.4501 16.9859 19.4534 16.9913C19.4553 16.9867 19.4599 16.9897 19.4626 16.9886C19.4656 17.0014 19.4756 16.9922 19.4819 16.993C19.4873 16.9976 19.48 17.0133 19.4928 17.0085L19.5039 16.9911C19.5083 16.9976 19.5028 17.0185 19.5194 17.0196L19.533 17.0104L19.535 17.024L19.5478 17.0196C19.5451 17.028 19.5524 17.038 19.5589 17.0462C19.5698 17.0416 19.5549 17.0152 19.5725 17.0242C19.5788 17.0407 19.5861 17.0188 19.5964 17.0261L19.5918 17.0391L19.6121 17.0437C19.6108 17.0471 19.6084 17.0501 19.6052 17.052C19.6021 17.054 19.5984 17.0549 19.5947 17.0545C19.579 17.0765 19.6158 17.0822 19.5966 17.105C19.5937 17.1123 19.5847 17.1167 19.5882 17.127C19.5918 17.1324 19.5983 17.137 19.6029 17.1314C19.6008 17.0995 19.6414 17.1123 19.643 17.083C19.6485 17.0792 19.6577 17.0822 19.665 17.0813L19.6669 17.0684C19.6834 17.0646 19.6998 17.0895 19.7173 17.0767C19.7209 17.0822 19.7182 17.0903 19.7266 17.0941C19.7347 17.0897 19.742 17.1025 19.7529 17.0987L19.7582 17.0841C19.7692 17.1052 19.7923 17.0962 19.8105 17.0924C19.8243 17.0841 19.8408 17.0834 19.859 17.0778C19.8612 17.0827 19.8652 17.0867 19.8701 17.0889C19.9011 17.0753 19.9038 17.1282 19.9388 17.1127C19.9379 17.1201 19.9388 17.1265 19.9453 17.1301C19.9526 17.132 19.9681 17.1249 19.9643 17.1393C19.9681 17.1512 19.9854 17.1523 19.9909 17.1632C20.0294 17.1759 20.0566 17.241 20.1035 17.2071L20.1401 17.2134C20.1502 17.2391 20.1531 17.2666 20.1694 17.2885C20.1677 17.2994 20.1629 17.3097 20.1648 17.3216C20.1667 17.3254 20.1721 17.3235 20.1759 17.3235C20.1721 17.3354 20.1851 17.3647 20.1648 17.3656C20.1621 17.3729 20.1694 17.3739 20.173 17.3766C20.1447 17.3957 20.1851 17.4277 20.1556 17.447C20.1426 17.4597 20.1345 17.4871 20.1163 17.4863C20.1171 17.4836 20.1135 17.4817 20.1116 17.4798C20.1089 17.4836 20.1035 17.4807 20.1008 17.4863C20.0999 17.4972 20.1236 17.4909 20.1116 17.5066C20.0899 17.511 20.098 17.555 20.0706 17.537C20.0568 17.5487 20.0422 17.5625 20.0267 17.5587C20.0267 17.5633 20.0332 17.5661 20.0304 17.5725C20.0248 17.5799 20.0221 17.5681 20.0158 17.5698C20.0085 17.578 20.0193 17.5845 20.0193 17.5918C20.0085 17.6083 19.9936 17.6238 19.9936 17.645C19.9762 17.6512 19.9662 17.6843 19.9497 17.6732L19.9561 17.6531C19.9497 17.6523 19.9461 17.6485 19.9453 17.642C19.9453 17.6401 19.9453 17.6376 19.9423 17.6355C19.9333 17.6429 19.935 17.6485 19.9204 17.6447C19.916 17.6466 19.9149 17.654 19.9187 17.6575L19.9342 17.664C19.9277 17.6743 19.9187 17.6797 19.9187 17.6933C19.925 17.6979 19.9333 17.7006 19.9317 17.7107C19.9271 17.7107 19.9214 17.7098 19.9187 17.7153C19.9187 17.7262 19.926 17.7308 19.9342 17.7299C19.9241 17.7519 19.935 17.7728 19.925 17.794L19.9342 17.8362C19.9168 17.8528 19.9139 17.8773 19.9187 17.902C19.8959 17.9131 19.926 17.9342 19.9095 17.9499C19.9049 17.9499 19.9021 17.9444 19.8984 17.9415C19.8883 17.9543 19.8929 17.9735 19.8791 17.9853L19.881 18.056C19.8571 18.0539 19.8609 18.088 19.8433 18.0953C19.8555 18.1182 19.8243 18.1136 19.8216 18.133C19.8197 18.1238 19.808 18.1301 19.8069 18.1368C19.7887 18.156 19.8006 18.1799 19.8069 18.201C19.786 18.2144 19.7475 18.1835 19.7446 18.2247C19.7649 18.2299 19.7446 18.2485 19.7475 18.254C19.7402 18.2485 19.7429 18.2375 19.7364 18.2339C19.7309 18.2513 19.7054 18.2375 19.688 18.2448C19.6826 18.2395 19.6897 18.2274 19.6816 18.2247C19.6732 18.2291 19.6788 18.2383 19.6769 18.2448L19.6506 18.2494L19.6615 18.2356C19.6468 18.2329 19.6284 18.2521 19.6129 18.2356C19.6088 18.238 19.6052 18.241 19.602 18.2446C19.6073 18.2519 19.6202 18.2483 19.6202 18.2601C19.6137 18.2776 19.5947 18.2519 19.5937 18.273C19.5893 18.2804 19.5771 18.2785 19.5719 18.2758C19.5727 18.2814 19.5719 18.2961 19.5608 18.295L19.5434 18.2839C19.5242 18.3097 19.4957 18.3113 19.4729 18.3344C19.4419 18.326 19.4618 18.3653 19.4371 18.3701C19.4333 18.3848 19.416 18.3729 19.4042 18.3856C19.4281 18.3911 19.3969 18.4068 19.4086 18.416C19.4068 18.4214 19.4051 18.4233 19.4005 18.425C19.3978 18.4241 19.3948 18.4269 19.3961 18.4296C19.395 18.434 19.3961 18.4377 19.4005 18.4405C19.4051 18.4396 19.4078 18.4331 19.4135 18.4359C19.4088 18.4497 19.4013 18.47 19.4116 18.4844C19.4005 18.4934 19.4042 18.5116 19.4024 18.5257C19.4191 18.5338 19.3961 18.5449 19.407 18.5566L19.3915 18.5457C19.3768 18.5558 19.4024 18.5604 19.3934 18.574L19.341 18.6307C19.332 18.6583 19.3291 18.6893 19.3055 18.7077C19.3136 18.7251 19.2925 18.7197 19.2879 18.7297C19.2751 18.7404 19.2653 18.7542 19.2596 18.7699L19.2504 18.7479L19.2615 18.7496C19.2642 18.746 19.2642 18.7414 19.2642 18.7368C19.2697 18.7377 19.2826 18.7349 19.2818 18.7257C19.2672 18.7048 19.3 18.7121 19.2946 18.6948C19.3203 18.6948 19.2946 18.6782 19.3057 18.6665L19.3101 18.6709C19.3073 18.6717 19.3082 18.6747 19.3082 18.6774C19.309 18.6801 19.3119 18.6791 19.3147 18.6791C19.3147 18.6701 19.3247 18.6592 19.3147 18.6508L19.2944 18.6663C19.2973 18.6533 19.2843 18.647 19.2797 18.6378C19.2753 18.6387 19.2716 18.6433 19.2688 18.6462C19.2724 18.66 19.2818 18.6747 19.2724 18.6855C19.2542 18.6956 19.2818 18.7075 19.2663 18.7184C19.2435 18.7075 19.2469 18.7368 19.2314 18.745C19.2268 18.7624 19.2517 18.7745 19.2333 18.7871C19.2544 18.8228 19.2086 18.8329 19.1939 18.8574L19.1765 18.8501C19.1893 18.8429 19.1757 18.8226 19.1893 18.8172C19.1866 18.7952 19.2134 18.8053 19.2207 18.7887C19.2196 18.7789 19.2234 18.7649 19.2178 18.7586C19.204 18.767 19.2113 18.7935 19.1876 18.7952C19.1753 18.7872 19.1665 18.7748 19.1629 18.7605C19.1564 18.7532 19.15 18.7659 19.1437 18.7586C19.1374 18.7494 19.1363 18.7385 19.1263 18.7322C19.1154 18.7504 19.1052 18.7257 19.0951 18.7276C19.0897 18.7176 19.0761 18.713 19.0777 18.6992C19.0713 18.6954 19.0604 18.7048 19.0604 18.7121C19.0608 18.7151 19.0604 18.7182 19.0591 18.721C19.0577 18.7237 19.0557 18.726 19.0531 18.7276H19.0503C19.043 18.7176 19.0577 18.7111 19.0522 18.6992C19.0438 18.6964 19.0348 18.6745 19.0265 18.6927L18.9934 18.6598C18.9888 18.668 18.985 18.6845 18.9714 18.6818H18.9624C18.9836 18.6699 18.9541 18.6339 18.9909 18.6414C18.9909 18.6194 19.0156 18.6175 19.0221 18.5976C19.0265 18.5949 19.0338 18.5958 19.0376 18.5895C19.0229 18.5773 19.0438 18.5757 19.0457 18.5646C19.0522 18.5683 19.0585 18.5757 19.0631 18.5646C19.0604 18.561 19.0549 18.5581 19.0566 18.5518C19.0813 18.5399 19.0989 18.5106 19.1253 18.5033C19.1364 18.4878 19.15 18.4959 19.1583 18.4769C19.1546 18.4729 19.1491 18.476 19.1472 18.4704C19.1692 18.4476 19.1326 18.4319 19.1445 18.4045C19.1372 18.4001 19.1326 18.3844 19.1209 18.3936C19.1106 18.398 19.1152 18.4082 19.1144 18.4156C19.1062 18.4147 19.0886 18.4099 19.0989 18.3982C19.1144 18.3846 19.0943 18.3634 19.1163 18.3524C19.1198 18.3388 19.107 18.3325 19.1117 18.3195C19.0897 18.2848 19.0459 18.3524 19.0459 18.2948C19.0413 18.291 19.0369 18.2848 19.0413 18.2793L19.0459 18.2755C19.015 18.2636 19.0533 18.2354 19.024 18.2207C19.0093 18.2207 18.9936 18.1996 18.989 18.2245C18.967 18.2329 18.9379 18.1987 18.9315 18.2272C18.925 18.2245 18.9195 18.2218 18.9122 18.2226L18.9187 18.2117L18.9078 18.2027L18.9206 18.1897L18.9122 18.1833C18.9279 18.1743 18.9095 18.1659 18.9187 18.155C18.9105 18.142 18.9187 18.1163 18.8984 18.1062L18.9168 18.0907L18.9057 18.0843C18.9057 18.066 18.9323 18.0504 18.9168 18.034C18.9084 18.0112 18.9432 17.9882 18.9122 17.9746C18.9195 17.9681 18.9168 17.9526 18.9057 17.9526C18.8693 17.9656 18.8793 17.9271 18.8682 17.9103C18.8837 17.9068 18.8737 17.8856 18.8766 17.8775C18.8666 17.8766 18.8693 17.8875 18.8655 17.893C18.8371 17.8875 18.808 17.8938 18.7803 17.8976C18.7795 17.8699 18.7657 17.8471 18.7584 17.8224H18.7649C18.7665 17.8013 18.7519 17.7839 18.7603 17.7628C18.7494 17.7544 18.7291 17.7555 18.7255 17.7454C18.7171 17.7324 18.7117 17.7481 18.7035 17.7437L18.6834 17.7565C18.6634 17.7557 18.6761 17.7088 18.6531 17.7345C18.6447 17.7356 18.6357 17.7182 18.6267 17.7301C18.6131 17.7218 18.6131 17.7128 18.6048 17.7C18.5928 17.7218 18.5736 17.6743 18.5625 17.7063C18.5551 17.6933 18.5166 17.7163 18.5248 17.686C18.5185 17.6805 18.512 17.6879 18.5058 17.6887C18.5131 17.6697 18.4855 17.6824 18.4903 17.664H18.4838C18.4919 17.6439 18.4683 17.6613 18.4729 17.642L18.4664 17.6355L18.4773 17.6272C18.4716 17.6152 18.4599 17.6062 18.4616 17.5916C18.4762 17.587 18.47 17.5751 18.47 17.565L18.4526 17.5504C18.4453 17.5558 18.4509 17.5723 18.4371 17.565C18.4317 17.5533 18.4271 17.5707 18.4197 17.5679C18.4003 17.5625 18.3894 17.5742 18.3783 17.5897C18.38 17.5951 18.3739 17.597 18.371 17.6008C18.3519 17.5943 18.3463 17.619 18.3362 17.6272C18.3324 17.6223 18.3269 17.619 18.3207 17.6182C18.3124 17.6219 18.3178 17.6311 18.3161 17.6385L18.2923 17.6558C18.2858 17.6295 18.2573 17.6512 18.2418 17.645C18.2318 17.6531 18.2115 17.6403 18.2063 17.6577C18.1943 17.6598 18.1843 17.6441 18.1732 17.656C18.1642 17.6303 18.1834 17.6175 18.1732 17.592C18.1916 17.5847 18.165 17.5717 18.1843 17.5635L18.1761 17.5543C18.1604 17.56 18.1678 17.5817 18.1541 17.5855C18.1422 17.6148 18.114 17.5939 18.0928 17.6029C18.0855 17.592 18.079 17.5893 18.0725 17.5765L18.0223 17.5792C18.0177 17.5684 18.0388 17.5646 18.0307 17.5545C18.0223 17.5472 18.0022 17.5455 18.0131 17.5288C18.0139 17.5252 18.0095 17.5236 18.0068 17.5244H18.0003C18.0003 17.5125 17.9873 17.5051 17.9783 17.5024H17.9754C17.9735 17.4924 17.9857 17.4959 17.989 17.4886C17.9708 17.4859 17.9708 17.4794 17.9626 17.4648C17.97 17.4612 17.9716 17.4629 17.98 17.4629C17.9626 17.4465 17.9938 17.4336 17.9938 17.4162C18.002 17.4116 18.0139 17.4154 18.0223 17.4078C18.0177 17.3949 17.9995 17.3859 18.0158 17.372C18.0259 17.3582 18.0129 17.3346 18.0267 17.3216C18.0397 17.3352 18.0451 17.3151 18.0524 17.3088C18.0679 17.3042 18.0807 17.2739 18.0962 17.2885C18.1146 17.2839 18.1366 17.282 18.1474 17.2649L18.1667 17.2603C18.1657 17.2668 18.1686 17.2714 18.173 17.2758C18.1841 17.2255 18.1876 17.1734 18.195 17.1219C18.2245 17.1054 18.1822 17.1054 18.195 17.0843C18.1933 17.078 18.1814 17.079 18.1887 17.0707C18.1906 17.0644 18.1824 17.0625 18.1778 17.0598C18.1713 17.0589 18.1613 17.0633 18.1604 17.0533C18.1659 17.0342 18.1458 16.9957 18.1778 16.9938C18.1893 16.9922 18.201 16.9948 18.2107 17.0012C18.2042 16.9974 18.2161 16.9773 18.1998 16.9792C18.2017 16.9656 18.1843 16.9784 18.1805 16.9683L18.1696 16.9813C18.1715 16.961 18.1541 16.9327 18.1805 16.9244C18.2054 16.9145 18.2492 16.9373 18.2594 16.9043C18.2703 16.8997 18.2695 16.9162 18.2751 16.9216C18.2841 16.9162 18.2824 16.8988 18.2971 16.898C18.308 16.9043 18.3235 16.9097 18.3272 16.9244L18.3235 16.9528C18.3528 16.9317 18.3544 17.0041 18.3848 16.9702L18.404 16.9767C18.3986 16.9585 18.4206 16.9602 18.4304 16.9637C18.4312 16.9273 18.4714 16.9553 18.4744 16.92C18.48 16.9244 18.4727 16.9346 18.4809 16.9373C18.5091 16.9319 18.48 16.8869 18.5137 16.8934C18.5183 16.8953 18.5221 16.898 18.5275 16.898C18.5313 16.8896 18.5294 16.876 18.5294 16.8695C18.5164 16.8896 18.503 16.8695 18.4836 16.8758C18.4823 16.8628 18.4775 16.8505 18.4698 16.84C18.4744 16.8264 18.4945 16.8189 18.4901 16.8007C18.4744 16.7906 18.4559 16.798 18.4442 16.7787L18.4415 16.7768C18.4532 16.7714 18.4714 16.7887 18.4788 16.7678C18.4852 16.767 18.4899 16.7743 18.4917 16.7787C18.4926 16.7806 18.4909 16.7825 18.4901 16.7833C18.4982 16.7942 18.5091 16.7793 18.5185 16.7877C18.5432 16.773 18.5432 16.8143 18.5671 16.8032C18.5662 16.7959 18.5541 16.7942 18.5579 16.785C18.5761 16.7814 18.5891 16.776 18.6062 16.7766C18.6081 16.7647 18.6228 16.7684 18.6282 16.7676C18.6209 16.7492 18.651 16.7603 18.6418 16.7437C18.6483 16.7448 18.66 16.7574 18.6638 16.7437C18.6592 16.7408 18.6617 16.7364 18.6608 16.7327L18.6719 16.7218C18.6719 16.7134 18.6617 16.7161 18.6608 16.708C18.6803 16.7107 18.696 16.6933 18.7115 16.7015Z" fill="#49A2D8"/>
<path fill-rule="evenodd" clip-rule="evenodd" d="M20.1194 28.0521L15.8319 17.4484V17.0022L15.0522 16.178L15.0826 17.3071L15.3879 17.6736L19.5089 28.1438L20.1194 28.0521Z" fill="black"/>
<path fill-rule="evenodd" clip-rule="evenodd" d="M17.0363 20.4954H16.548L16.0419 19.2474H16.5302L17.0363 20.4954ZM17.8697 22.6145H17.3814L16.8753 21.3665H17.3638L17.8697 22.6145ZM18.7412 24.7691H18.2529L17.7468 23.5207H18.2351L18.7412 24.7691ZM19.5792 26.875H19.0907L18.5846 25.627H19.0731L19.5792 26.875ZM16.1935 18.4096H15.7048L15.4199 17.6702H15.9082L16.1935 18.4096Z" fill="white"/>
<path fill-rule="evenodd" clip-rule="evenodd" d="M19.2989 16.8993C19.2934 16.9049 19.2878 16.9123 19.2796 16.9131C19.2752 16.9049 19.285 16.8947 19.2926 16.8911C19.2942 16.8938 19.307 16.8928 19.2989 16.8993ZM19.266 16.915C19.2687 16.9231 19.2712 16.9367 19.2639 16.9434H19.2595L19.2614 16.915H19.266ZM19.2924 16.9497C19.285 16.9516 19.2769 16.957 19.2704 16.9524C19.2704 16.9378 19.2907 16.9451 19.297 16.9321C19.3024 16.9367 19.2949 16.9451 19.2924 16.9497ZM19.3252 16.9434C19.3252 16.9516 19.3162 16.9552 19.3125 16.9608C19.3079 16.9616 19.3032 16.9608 19.3014 16.9572C19.3097 16.9541 19.3133 16.9286 19.3252 16.9434ZM19.253 16.9459C19.2585 16.9549 19.2465 16.9596 19.2392 16.9652C19.2375 16.9589 19.2419 16.9434 19.253 16.9459ZM19.231 16.9606C19.2338 16.9706 19.222 16.9744 19.2172 16.9809H19.2107C19.2063 16.9725 19.2162 16.9625 19.2246 16.9589C19.2262 16.9589 19.2294 16.9579 19.231 16.9606ZM19.2574 17.0184C19.2511 17.0194 19.2465 17.0238 19.2392 17.0246C19.2294 17.0092 19.253 17.0037 19.2375 16.9918L19.2503 16.9826C19.2501 16.9945 19.2384 17.0146 19.2574 17.0184ZM19.2218 16.9964C19.2262 17.0211 19.199 17.0311 19.1842 17.0449C19.1796 17.0341 19.1961 17.0276 19.195 17.0156C19.1961 17.0048 19.2074 16.9853 19.2218 16.9964ZM19.6201 17.0623C19.6201 17.0669 19.6193 17.0705 19.6155 17.0734C19.6082 17.0761 19.6046 17.0688 19.5981 17.0705C19.6009 17.0661 19.6155 17.0449 19.6201 17.0623ZM19.2484 17.0889C19.2449 17.0778 19.2237 17.0696 19.2375 17.0579H19.2484V17.0889ZM19.6283 17.0753C19.6323 17.0862 19.6228 17.0916 19.6153 17.0954H19.6109C19.6073 17.0841 19.6201 17.0753 19.6283 17.0753ZM19.6459 18.262V18.2682C19.6385 18.2682 19.6293 18.2756 19.6239 18.2664C19.6212 18.2528 19.6459 18.2473 19.6459 18.262ZM19.4261 18.5284C19.424 18.533 19.4167 18.5338 19.4131 18.5303C19.4091 18.5165 19.4091 18.4983 19.4221 18.488C19.437 18.4972 19.4215 18.514 19.4261 18.5284ZM19.2262 18.8049C19.2227 18.8206 19.2063 18.8298 19.1953 18.8423C19.1961 18.826 19.2107 18.8095 19.2262 18.8049Z" fill="#49A2D8"/>
<path d="M29.7676 20.6958C29.7676 25.5308 25.8482 29.45 21.0133 29.45C16.1787 29.45 12.2595 25.5306 12.2595 20.6958C12.2595 15.861 16.1789 11.9418 21.0133 11.9418C25.8484 11.9418 29.7676 15.861 29.7676 20.6958Z" stroke="black" stroke-width="2.74715" stroke-miterlimit="2.613"/>
<path fill-rule="evenodd" clip-rule="evenodd" d="M14.9115 27.4127C14.9051 27.4187 14.8984 27.4244 14.8914 27.4299C14.8862 27.4336 14.8813 27.4378 14.877 27.4426C14.8464 27.4812 14.8657 27.5542 14.9348 27.6622C15.0038 27.7706 15.0961 27.8711 15.2121 27.9634C15.3079 28.0398 15.3958 28.0873 15.476 28.1057C15.5559 28.1241 15.6135 28.1113 15.6487 28.0672C15.6995 28.0019 15.6194 27.875 15.4084 27.6871L15.3293 27.6172C15.1332 27.4414 15.0162 27.2827 14.9785 27.1421C14.9408 27.0015 14.9766 26.8629 15.0855 26.726C15.1993 26.5833 15.3531 26.5146 15.5467 26.5205C15.7403 26.5264 15.9354 26.6076 16.1325 26.7645C16.3609 26.9468 16.5388 27.1501 16.6664 27.374C16.6813 27.4002 16.6905 27.4148 16.6941 27.4177C16.7014 27.4233 16.7104 27.426 16.7196 27.4255C16.7299 27.4255 16.7487 27.4221 16.7767 27.4156L16.7949 27.4556L16.2753 27.7417L16.2569 27.6992C16.2613 27.6977 16.2655 27.6957 16.2694 27.6932C16.2744 27.6898 16.2792 27.6861 16.2836 27.6821C16.3263 27.6285 16.3111 27.5349 16.2382 27.4012C16.1654 27.2675 16.0591 27.1448 15.9195 27.0333C15.8224 26.956 15.7328 26.9106 15.6512 26.8976C15.5695 26.8843 15.5074 26.9041 15.4647 26.9577C15.3862 27.0563 15.4611 27.2043 15.6895 27.402C15.7062 27.4167 15.719 27.4282 15.7278 27.4372C15.9191 27.6023 16.0375 27.7568 16.0829 27.9008C16.1284 28.045 16.1007 28.18 16.0001 28.3066C15.8956 28.4374 15.7535 28.4979 15.5733 28.4889C15.3935 28.4795 15.2094 28.3997 15.022 28.2501C14.9048 28.1574 14.7977 28.0395 14.6997 27.8972C14.6022 27.7549 14.5497 27.681 14.5428 27.6756C14.5254 27.6614 14.511 27.6538 14.4997 27.6528C14.4847 27.6528 14.47 27.6561 14.4565 27.6626L14.4377 27.6218L14.8927 27.3717L14.9115 27.4127ZM15.1436 26.2064C15.0923 26.2543 15.0244 26.2804 14.9542 26.2792C14.9216 26.2798 14.8893 26.2734 14.8594 26.2602C14.8296 26.2471 14.8029 26.2277 14.7814 26.2032C14.738 26.1547 14.7207 26.0948 14.7292 26.0253C14.7374 25.956 14.7715 25.8922 14.8247 25.847C14.8799 25.798 14.9419 25.7738 15.0105 25.7742C15.0792 25.775 15.1357 25.7999 15.1798 25.8497C15.2255 25.9012 15.2449 25.9613 15.2382 26.0295C15.231 26.0986 15.1971 26.162 15.1436 26.2064ZM13.0095 24.8066C13.0041 24.8071 12.9988 24.8079 12.9936 24.8091C12.9888 24.8106 12.9841 24.8125 12.9796 24.8148C12.9379 24.8405 12.9258 24.9088 12.9427 25.0199C12.9601 25.131 13.0011 25.2403 13.0662 25.3468C13.1577 25.4964 13.2684 25.5929 13.3984 25.6371C13.5285 25.6812 13.6554 25.6653 13.7786 25.59C13.9019 25.5144 13.9737 25.4117 13.9927 25.2821C14.012 25.1526 13.9762 25.0136 13.8854 24.8652C13.8416 24.7905 13.7882 24.7218 13.7267 24.6607C13.6679 24.6066 13.6018 24.5608 13.5304 24.5247C13.5158 24.5162 13.4998 24.5104 13.4831 24.5075C13.4714 24.5071 13.4599 24.5104 13.4503 24.517C13.4438 24.5211 13.4378 24.5257 13.4321 24.5308C13.4251 24.5372 13.4178 24.5434 13.4103 24.5492L13.3722 24.5312L13.6832 23.9707L13.7234 23.9973C13.7184 24.0174 13.715 24.0333 13.714 24.0452C13.7129 24.0571 13.7136 24.0657 13.7163 24.0705C13.7211 24.0779 13.7424 24.0938 13.7801 24.1176C13.9849 24.2395 14.1568 24.4096 14.2809 24.613C14.449 24.8876 14.5105 25.1501 14.4645 25.4004C14.4189 25.6505 14.2757 25.8493 14.0348 25.9964C13.8008 26.1396 13.562 26.1771 13.3182 26.1088C13.0744 26.0402 12.8735 25.8771 12.7152 25.6183C12.6305 25.4789 12.5687 25.3268 12.5321 25.1679C12.5132 25.0849 12.4935 25.0022 12.4731 24.9196C12.465 24.9085 12.4542 24.8997 12.4417 24.8939C12.4235 24.8873 12.4045 24.8831 12.3852 24.8815L12.3804 24.8416L13.0034 24.7622L13.0095 24.8066ZM13.5993 23.8472C13.5345 23.8742 13.4619 23.8751 13.3965 23.8497C13.3657 23.8391 13.3375 23.8219 13.3141 23.7993C13.2906 23.7767 13.2723 23.7493 13.2604 23.7189C13.2366 23.658 13.241 23.5963 13.273 23.5333C13.305 23.4711 13.3552 23.4261 13.4241 23.3991C13.493 23.3726 13.5595 23.3713 13.6238 23.3954C13.6878 23.4199 13.7322 23.4628 13.7562 23.5245C13.7814 23.5892 13.7789 23.6515 13.7489 23.7133C13.7188 23.7754 13.669 23.82 13.5993 23.8472ZM12.0825 21.7953C12.0773 21.7941 12.072 21.7931 12.0666 21.7924C12.0616 21.7919 12.0564 21.792 12.0514 21.7928C12.0034 21.8022 11.9683 21.8623 11.9459 21.9722C11.9234 22.0877 11.9242 22.2065 11.9482 22.3217C11.9821 22.4937 12.0524 22.6229 12.1589 22.7093C12.2657 22.796 12.39 22.8251 12.5319 22.7972C12.6742 22.769 12.7766 22.6978 12.8396 22.5831C12.9028 22.4682 12.9174 22.3257 12.8835 22.1547C12.8686 22.0694 12.8424 21.9865 12.8056 21.9082C12.7693 21.8368 12.7233 21.7707 12.669 21.7118C12.6583 21.6987 12.6452 21.6878 12.6305 21.6796C12.6197 21.6752 12.6079 21.6742 12.5966 21.6767C12.589 21.6784 12.5816 21.6807 12.5744 21.6836C12.566 21.6873 12.5572 21.6901 12.5478 21.6934L12.5185 21.6631L13.0047 21.2453L13.0331 21.2847C13.0214 21.3014 13.0131 21.3152 13.0076 21.3263C13.0024 21.337 13.0001 21.3452 13.0011 21.3504C13.0028 21.359 13.0172 21.3814 13.0447 21.4169C13.1946 21.6021 13.2968 21.8212 13.3425 22.0551C13.4046 22.3715 13.3712 22.6388 13.2416 22.8575C13.1118 23.0762 12.9086 23.2127 12.6315 23.2675C12.3626 23.3202 12.1257 23.2727 11.9206 23.1235C11.7157 22.9751 11.5838 22.752 11.5252 22.4544C11.4942 22.2944 11.489 22.1305 11.5099 21.9688C11.5309 21.802 11.5409 21.7179 11.5407 21.7158C11.5371 21.7025 11.53 21.6903 11.5202 21.6806C11.5056 21.6679 11.4892 21.6573 11.4716 21.6493L11.4808 21.6099L12.0928 21.7522L12.0825 21.7953ZM11.9191 20.5632C11.8291 20.4689 11.7881 20.3496 11.7956 20.2043C11.8034 20.0584 11.8569 19.9431 11.9563 19.859C12.0558 19.7748 12.1813 19.7368 12.3339 19.7447C12.4875 19.7529 12.6085 19.8035 12.6974 19.8964C12.7862 19.9894 12.8268 20.1091 12.819 20.255C12.8111 20.4033 12.7584 20.5195 12.6608 20.6032C12.5633 20.6869 12.4371 20.7246 12.2824 20.7164C12.1301 20.7083 12.0089 20.6572 11.9191 20.5632ZM13.0068 19.5775C12.8396 19.3868 12.6227 19.2845 12.3563 19.2705C12.089 19.2562 11.863 19.3347 11.6782 19.5057C11.4932 19.6767 11.3934 19.9023 11.3785 20.1825C11.3638 20.4615 11.4394 20.6959 11.6052 20.8856C11.7711 21.0748 11.9877 21.1767 12.2548 21.1909C12.521 21.2047 12.7475 21.1262 12.9339 20.9546C13.1206 20.7834 13.2213 20.5584 13.2362 20.2807C13.2508 20.0023 13.1744 19.7681 13.0068 19.5775ZM12.2186 17.8146C12.2621 17.6805 12.3063 17.5926 12.3515 17.5515C12.3969 17.5107 12.4553 17.5017 12.5271 17.525C12.5957 17.5469 12.6372 17.5901 12.6514 17.6537C12.6658 17.7175 12.6537 17.809 12.615 17.9287L12.4928 18.3075L12.1008 18.1809L12.2186 17.8146ZM13.4919 18.5461L13.4484 18.5321C13.4298 18.5612 13.4126 18.5785 13.3973 18.584C13.3822 18.5894 13.3594 18.5875 13.3295 18.5779L12.8358 18.4184L12.9377 18.1024L13.4603 17.9932C13.4681 17.9908 13.4789 17.9881 13.493 17.9846C13.5279 17.9749 13.5528 17.9724 13.5675 17.9772C13.5804 17.9814 13.5901 17.9892 13.5964 18.0003C13.6026 18.0118 13.606 18.026 13.6062 18.0436L13.6493 18.0591L13.8508 17.435L13.8073 17.4207C13.7895 17.4493 13.7641 17.4723 13.7339 17.4871C13.702 17.5034 13.6428 17.5195 13.5566 17.5354L13.0809 17.6371C13.0809 17.4915 13.047 17.3709 12.9789 17.2753C12.9109 17.1798 12.8107 17.1108 12.678 17.0681C12.5074 17.0128 12.3573 17.0237 12.2278 17.1003C12.0982 17.1769 12.002 17.3125 11.9392 17.5065L11.592 18.5817L11.6355 18.5959C11.6537 18.5689 11.67 18.5526 11.6841 18.548C11.6987 18.543 11.7217 18.5455 11.7533 18.5559L13.187 19.0187C13.219 19.0291 13.2393 19.0404 13.2483 19.053C13.2571 19.0656 13.2606 19.0877 13.2583 19.12L13.3019 19.1342L13.4919 18.5461ZM14.0179 17.1945L13.9779 17.1723C13.9865 17.1411 13.9873 17.1185 13.981 17.1047C13.9747 17.0909 13.9567 17.0756 13.9277 17.0593L12.6098 16.3299C12.5805 16.3138 12.5583 16.3067 12.543 16.3088C12.5277 16.3109 12.5087 16.3232 12.4859 16.3464L12.4457 16.3243L12.745 15.7835L12.7849 15.8056C12.7766 15.8393 12.7757 15.8634 12.782 15.8785C12.7885 15.8933 12.8059 15.9088 12.8341 15.9243L14.152 16.6537C14.1794 16.669 14.2012 16.6752 14.2173 16.6727C14.2334 16.6702 14.2533 16.6564 14.2774 16.6315L14.3176 16.6537L14.0179 17.1945ZM14.6445 15.9013C14.67 15.9231 14.6909 15.9339 14.7066 15.9341C14.7225 15.9344 14.7441 15.9245 14.7715 15.9042L14.8065 15.9339L14.4503 16.3523L14.4155 16.3228C14.4297 16.2937 14.4352 16.2719 14.4318 16.2569C14.4285 16.242 14.4141 16.2236 14.3885 16.202L13.2416 15.2257C13.2161 15.2039 13.1956 15.1926 13.1805 15.1914C13.1652 15.1905 13.1441 15.1989 13.1169 15.2171L13.0819 15.1874L13.5449 14.6437L13.5798 14.6734C13.5725 14.6895 13.5689 14.707 13.5694 14.7247C13.5694 14.731 13.5708 14.7373 13.5734 14.7431C13.576 14.7489 13.5799 14.7541 13.5846 14.7583C13.5949 14.7671 13.6181 14.7715 13.6543 14.7717L13.6782 14.7724L14.7521 14.7902L14.0911 14.2276C14.0664 14.2064 14.0461 14.196 14.0294 14.1956C14.0128 14.1951 13.9907 14.2046 13.9626 14.2236L13.9277 14.1939L14.2914 13.7667L14.3261 13.7964C14.3117 13.827 14.3061 13.8507 14.3092 13.867C14.3123 13.8831 14.3261 13.9017 14.3506 13.9226L15.4976 14.899C15.5214 14.9195 15.5413 14.9298 15.558 14.9302C15.5746 14.9306 15.5968 14.9212 15.6246 14.9021L15.6595 14.9319L15.2763 15.3818L15.2414 15.3521C15.2493 15.3368 15.2532 15.3197 15.2529 15.3025C15.2528 15.2961 15.2515 15.2898 15.2488 15.2839C15.2462 15.2781 15.2424 15.2729 15.2376 15.2686C15.2265 15.2594 15.1981 15.254 15.1524 15.2523C15.1494 15.2525 15.1463 15.2527 15.1432 15.2529L13.8607 15.2345L14.6445 15.9013ZM15.9435 13.0549L16.6384 14.0478C16.6574 14.0754 16.6746 14.0913 16.689 14.0962C16.7035 14.101 16.7259 14.0976 16.756 14.0861L16.7822 14.1236L16.2759 14.4781L16.2495 14.4406C16.2711 14.4147 16.2813 14.3938 16.2807 14.3781C16.2803 14.3622 16.2713 14.3419 16.2539 14.317L15.5591 13.3241L15.1612 13.6026C15.1376 13.6192 15.1238 13.6357 15.12 13.652C15.1164 13.6684 15.1212 13.6931 15.1348 13.7259L15.1022 13.7489L14.7508 13.2473L14.7837 13.2242C14.8104 13.2492 14.8316 13.2625 14.8477 13.2644C14.8634 13.2665 14.8837 13.259 14.9086 13.2416L16.0861 12.4174C16.1106 12.4003 16.1248 12.3837 16.1279 12.3685C16.1313 12.353 16.1256 12.3287 16.1106 12.2954L16.1482 12.2693L16.4994 12.7711L16.4618 12.7973C16.4364 12.7726 16.4155 12.7594 16.399 12.7571C16.3824 12.755 16.3626 12.7621 16.3389 12.7789L15.9435 13.0549ZM17.4209 13.697L17.4052 13.6539C17.4318 13.6359 17.4475 13.6196 17.4517 13.6049C17.4561 13.5903 17.4525 13.5673 17.441 13.5359L16.922 12.1227C16.9103 12.0909 16.8979 12.0708 16.8851 12.0625C16.8722 12.0539 16.8498 12.0508 16.8171 12.0531L16.8014 12.0101L17.3816 11.7969L17.3973 11.8398C17.369 11.8599 17.3525 11.8777 17.3475 11.8934C17.3427 11.9089 17.3458 11.9321 17.3569 11.9626L17.5312 12.4371L18.2887 12.1587L18.1143 11.6845C18.103 11.6539 18.0902 11.6343 18.0762 11.6257C18.062 11.6171 18.0379 11.6142 18.0042 11.6171L17.9885 11.574L18.5687 11.3609L18.5844 11.4038C18.5582 11.4231 18.5429 11.44 18.5385 11.4551C18.5344 11.4698 18.5379 11.493 18.5496 11.5248L19.0689 12.9381C19.0804 12.9693 19.0925 12.9894 19.1053 12.9978C19.1181 13.006 19.1405 13.0085 19.1725 13.0049L19.1882 13.048L18.608 13.2611L18.5923 13.218C18.62 13.1983 18.6365 13.1807 18.6415 13.1652C18.647 13.1495 18.6442 13.1271 18.6336 13.0978L18.4308 12.5457L17.6731 12.8241L17.8759 13.3762C17.8866 13.4057 17.899 13.4245 17.9128 13.4329C17.9266 13.4417 17.9507 13.4444 17.9852 13.4413L18.0009 13.4842L17.4209 13.697ZM19.5032 13.0319L19.4963 12.9867C19.5262 12.9741 19.5444 12.9614 19.5517 12.9478C19.5588 12.9344 19.5601 12.9109 19.5549 12.8779L19.3274 11.389C19.3223 11.3559 19.3144 11.3339 19.3033 11.3233C19.2924 11.3126 19.2709 11.305 19.2384 11.3011L19.2315 11.2557L19.8426 11.1623L19.8493 11.2075C19.8177 11.2213 19.7981 11.2354 19.7899 11.2496C19.7819 11.264 19.7805 11.287 19.7855 11.3189L20.0128 12.8078C20.0176 12.8387 20.0258 12.8599 20.0377 12.871C20.0496 12.8823 20.0727 12.8898 20.107 12.8934L20.1139 12.9388L19.5032 13.0319ZM21.2235 11.4243L21.4835 12.2245L20.9368 12.2088L21.2235 11.4243ZM22.1997 12.9262L22.2009 12.8804C22.1658 12.8649 22.1404 12.8327 22.125 12.7839C22.1241 12.7816 22.1233 12.7797 22.1233 12.7787L21.6451 11.3207C21.6384 11.2984 21.6323 11.2759 21.6266 11.2534C21.6228 11.2401 21.6205 11.2265 21.6197 11.2128C21.6202 11.195 21.6239 11.182 21.6308 11.1736C21.6377 11.1655 21.6501 11.1606 21.6681 11.1588L21.6693 11.1129L20.8554 11.0895L20.8541 11.1353C20.8717 11.1382 20.8843 11.1437 20.8912 11.1523C20.8981 11.1608 20.9017 11.174 20.901 11.192C20.8993 11.2057 20.8961 11.2191 20.8914 11.232L20.8696 11.2984L20.4029 12.5805C20.3991 12.5892 20.3955 12.5981 20.3922 12.607C20.3529 12.7219 20.3058 12.7944 20.2503 12.8243L20.2491 12.8701L20.8041 12.886L20.8054 12.8402C20.7832 12.8329 20.7671 12.8224 20.7568 12.8086C20.7466 12.7948 20.7418 12.7774 20.7424 12.7559C20.7426 12.7465 20.744 12.7372 20.7466 12.7282C20.7494 12.7175 20.7531 12.7071 20.7577 12.697L20.8301 12.5032L21.5873 12.525L21.6469 12.7226C21.6538 12.7443 21.6589 12.7611 21.6612 12.7728C21.6635 12.7825 21.6647 12.7925 21.6645 12.8025C21.6648 12.8098 21.6636 12.817 21.661 12.8237C21.6584 12.8305 21.6545 12.8367 21.6495 12.8419C21.6365 12.8528 21.621 12.8602 21.6045 12.8634L21.6028 12.9093L22.1997 12.9262ZM22.7874 12.9388C22.7779 12.971 22.7767 12.9944 22.783 13.0091C22.7893 13.0237 22.807 13.0394 22.837 13.0562L22.824 13.1001L22.2966 12.9455L22.3093 12.9017C22.3416 12.903 22.3642 12.899 22.3759 12.8898C22.3882 12.8806 22.3991 12.8599 22.4085 12.8278L22.8319 11.3823C22.8414 11.3503 22.8435 11.3268 22.838 11.3126C22.8328 11.2984 22.8162 11.2822 22.7886 11.2649L22.8016 11.2211L23.4866 11.4218L23.4738 11.4658C23.4529 11.4664 23.4358 11.4702 23.4228 11.4771C23.4098 11.484 23.4018 11.4932 23.3983 11.5049C23.3945 11.5179 23.4 11.5409 23.4146 11.5742C23.418 11.5824 23.4207 11.5897 23.4236 11.5962L23.8455 12.5838L24.0896 11.7508C24.0986 11.7201 24.0998 11.6968 24.0938 11.6816C24.0873 11.6663 24.0697 11.6498 24.041 11.632L24.054 11.588L24.5919 11.7458L24.5791 11.7898C24.5452 11.7891 24.5216 11.7937 24.5075 11.803C24.4941 11.8122 24.483 11.8325 24.4736 11.8636L24.0506 13.3092C24.0416 13.3394 24.0404 13.3618 24.0469 13.377C24.0529 13.3923 24.0705 13.4088 24.0996 13.4264L24.0869 13.4704L23.5199 13.3042L23.5327 13.2605C23.5498 13.2612 23.5669 13.2579 23.5825 13.2506C23.5883 13.248 23.5934 13.2442 23.5977 13.2394C23.6019 13.2347 23.6051 13.2291 23.607 13.223C23.6111 13.209 23.6044 13.1809 23.5873 13.1384L23.5825 13.1303L23.0764 11.9518L22.7874 12.9388ZM26.139 13.2307C26.1438 13.2247 26.1496 13.218 26.1565 13.2111C26.163 13.2039 26.1676 13.1991 26.1693 13.1964C26.1946 13.1546 26.1655 13.0844 26.0831 12.9863C26.0006 12.8881 25.8951 12.8009 25.7683 12.7247C25.6632 12.6617 25.5697 12.6263 25.4879 12.6186C25.406 12.6108 25.3506 12.6311 25.3219 12.6795C25.2798 12.7512 25.3759 12.8664 25.6101 13.0246L25.698 13.0832C25.9154 13.232 26.0523 13.3735 26.1084 13.5076C26.1645 13.642 26.1477 13.7841 26.0577 13.9342C25.9634 14.0911 25.8198 14.1792 25.6277 14.1991C25.4351 14.219 25.2308 14.1642 25.0144 14.0346C24.7643 13.8844 24.5607 13.7065 24.405 13.5009C24.395 13.487 24.384 13.4738 24.3719 13.4616C24.3638 13.457 24.3544 13.4555 24.3453 13.4572C24.3264 13.4612 24.3079 13.467 24.2901 13.4746L24.2664 13.4373L24.7438 13.0849L24.7675 13.1246C24.7637 13.1263 24.7601 13.129 24.756 13.1324C24.7518 13.1357 24.7478 13.1401 24.7432 13.1453C24.708 13.2039 24.7354 13.2946 24.8254 13.4176C24.9154 13.5407 25.0372 13.6483 25.1904 13.7399C25.2968 13.8042 25.3912 13.8371 25.474 13.8398C25.5567 13.8421 25.6159 13.8138 25.6511 13.7552C25.7158 13.6472 25.6216 13.5103 25.3694 13.3446C25.355 13.335 25.3408 13.3251 25.3269 13.3149C25.1151 13.1763 24.9774 13.0386 24.9131 12.9019C24.8489 12.7653 24.8587 12.6278 24.9418 12.489C25.028 12.3454 25.1609 12.2665 25.3407 12.2521C25.5205 12.2376 25.713 12.2921 25.9188 12.4153C26.0471 12.4924 26.1689 12.5945 26.2846 12.7226C26.4004 12.8507 26.4621 12.917 26.4698 12.9214C26.4891 12.9329 26.5042 12.9386 26.5153 12.9381C26.5302 12.9366 26.5445 12.9313 26.5569 12.9229L26.581 12.9607L26.1628 13.269L26.139 13.2307ZM28.2237 14.9406C28.3137 15.0511 28.3635 15.1365 28.3733 15.197C28.3836 15.2575 28.3591 15.3115 28.3005 15.3592C28.2448 15.4046 28.186 15.4159 28.1247 15.3929C28.063 15.3699 27.9922 15.3094 27.9125 15.211L27.6917 14.9396L28.0113 14.6797L28.2237 14.9406ZM26.9474 15.6483L26.983 15.6194C26.9688 15.588 26.9638 15.5641 26.9671 15.5484C26.9713 15.5325 26.9851 15.5147 27.0092 15.4948L27.4123 15.1673L27.6525 15.4635C27.7478 15.5804 27.8263 15.6644 27.8888 15.7152C27.951 15.7663 28.0148 15.8006 28.0793 15.8184C28.1578 15.841 28.2404 15.8412 28.3267 15.819C28.4157 15.7959 28.4984 15.7534 28.569 15.6945C28.708 15.5813 28.7808 15.4496 28.7873 15.2994C28.7938 15.1493 28.7329 14.9953 28.6042 14.8373L27.9518 14.0348L27.9163 14.0637C27.929 14.0939 27.9334 14.116 27.9296 14.1307C27.9259 14.1453 27.9112 14.1633 27.8855 14.1843L26.7168 15.1349C26.6906 15.1562 26.6697 15.1669 26.6546 15.1677C26.6392 15.1684 26.6186 15.1589 26.5929 15.1397L26.5573 15.1686L26.9474 15.6483ZM29.2775 16.5143L28.695 17.121L28.4506 16.6319L29.2775 16.5143ZM28.4146 18.0838L28.4554 18.0633C28.4525 18.0248 28.4688 17.9873 28.5048 17.9507C28.5056 17.949 28.5069 17.9476 28.5085 17.9467L29.5678 16.8364C29.5858 16.8186 29.6029 16.8023 29.6184 16.7885C29.6339 16.7747 29.6446 16.7661 29.6506 16.7629C29.6666 16.755 29.6802 16.7523 29.6902 16.7544C29.7009 16.7567 29.7111 16.7652 29.7208 16.7803L29.7616 16.7598L29.3978 16.0315L29.357 16.0518C29.3631 16.0689 29.3639 16.0823 29.3595 16.0926C29.3553 16.1026 29.3453 16.1118 29.3292 16.12C29.3164 16.1248 29.3031 16.1283 29.2896 16.1303L29.2206 16.1422L27.87 16.3364L27.8413 16.3395C27.722 16.3594 27.6358 16.3519 27.5831 16.3171L27.5422 16.3377L27.7905 16.8345L27.8317 16.814C27.8272 16.7947 27.8289 16.7745 27.8365 16.7562C27.845 16.7396 27.859 16.7263 27.8761 16.7186C27.8845 16.7144 27.8935 16.7113 27.9027 16.7092C27.9121 16.7071 27.9232 16.7052 27.9349 16.7043L28.14 16.6767L28.4784 17.3544L28.3321 17.5003C28.3204 17.5131 28.308 17.5252 28.2949 17.5365C28.2874 17.5431 28.2792 17.5488 28.2704 17.5534C28.2641 17.5571 28.2571 17.5594 28.2499 17.5603C28.2426 17.5612 28.2353 17.5606 28.2283 17.5587C28.2127 17.5524 28.1989 17.5422 28.1883 17.5292L28.1475 17.5497L28.4146 18.0838ZM30.32 19.1062C30.3534 19.0993 30.3761 19.089 30.3869 19.076C30.3976 19.063 30.4037 19.0398 30.4045 19.0065L30.4495 18.9971L30.5778 19.6074L30.5332 19.617C30.5177 19.5871 30.5027 19.5685 30.4874 19.5607C30.4719 19.5532 30.4478 19.5528 30.4154 19.5599L29.5378 19.7447C29.2848 19.7981 29.0799 19.7684 28.9227 19.6558C28.7656 19.5432 28.6578 19.3498 28.6002 19.0752C28.5418 18.7985 28.5634 18.5787 28.6649 18.4157C28.7666 18.2525 28.9502 18.143 29.216 18.0871L30.0678 17.9078C30.1013 17.9006 30.1234 17.8906 30.1343 17.8774C30.1454 17.8644 30.1511 17.8412 30.1523 17.8079L30.1969 17.7985L30.3244 18.4034L30.2794 18.4128C30.2666 18.3845 30.2528 18.3672 30.2377 18.3605C30.2226 18.3538 30.1982 18.354 30.163 18.3613L29.3982 18.5224C29.2392 18.5559 29.1341 18.607 29.0831 18.6763C29.0316 18.7453 29.0201 18.8481 29.0491 18.9848C29.0774 19.1183 29.1285 19.207 29.2032 19.2512C29.2775 19.2956 29.3928 19.3012 29.5485 19.2686L30.32 19.1062ZM29.1766 21.8357C29.1753 21.8648 29.1795 21.8851 29.1896 21.8975C29.1996 21.9098 29.2226 21.9203 29.2582 21.9297L29.2557 21.9755L28.6613 21.9473L28.6634 21.9015C28.6998 21.8954 28.7235 21.8872 28.7346 21.8765C28.7461 21.8659 28.7522 21.8456 28.7538 21.8156L28.8271 20.2763L28.8729 20.2788C28.879 20.3102 28.8884 20.3311 28.8999 20.3406C28.9123 20.3504 28.9347 20.356 28.9681 20.3577L30.4725 20.4293C30.506 20.431 30.529 20.4276 30.542 20.419C30.5548 20.4105 30.5661 20.3908 30.5768 20.3602L30.6226 20.3623L30.5927 20.9795L30.5468 20.9774C30.5395 20.9439 30.5297 20.9213 30.5173 20.9109C30.505 20.9004 30.483 20.8941 30.4508 20.8929L29.2245 20.8345L29.1766 21.8357ZM28.662 22.1873L28.7065 22.1976C28.707 22.2298 28.7122 22.252 28.722 22.2637C28.7319 22.2752 28.753 22.2851 28.7859 22.2928L30.2522 22.6377C30.2844 22.6455 30.3078 22.6459 30.3221 22.6398C30.3359 22.6342 30.3511 22.6166 30.3671 22.5883L30.4116 22.5986L30.2697 23.2003L30.2252 23.1901C30.2243 23.1553 30.2187 23.1321 30.2084 23.1193C30.1982 23.1065 30.1774 23.0965 30.1458 23.089L28.6795 22.7441C28.649 22.7367 28.6264 22.7367 28.6117 22.7432C28.5971 22.7501 28.5814 22.769 28.5651 22.7993L28.5205 22.7891L28.662 22.1873ZM29.0527 24.8541C29.0592 24.8583 29.0665 24.8631 29.0745 24.8692C29.0795 24.8733 29.085 24.8769 29.0908 24.8799C29.1354 24.8995 29.2011 24.8623 29.2882 24.7675C29.3748 24.6731 29.4485 24.5582 29.5077 24.4226C29.5571 24.3102 29.5805 24.2129 29.5776 24.131C29.5751 24.0488 29.5477 23.9965 29.4962 23.9736C29.4198 23.9414 29.3175 24.0513 29.1904 24.3035L29.1433 24.3979C29.0232 24.6325 28.9001 24.7861 28.7737 24.8589C28.6477 24.9314 28.5048 24.9326 28.3445 24.8623C28.1768 24.7886 28.0709 24.6578 28.0272 24.4695C27.983 24.2811 28.0117 24.0714 28.1126 23.8403C28.23 23.5731 28.3807 23.3489 28.5646 23.1679C28.5864 23.1469 28.5977 23.1344 28.5998 23.1302C28.6032 23.1217 28.6036 23.1124 28.6011 23.1036C28.5942 23.0854 28.586 23.0678 28.5766 23.0509L28.6105 23.0226L29.0205 23.4519L28.9841 23.4806C28.9817 23.4765 28.9786 23.4729 28.9751 23.4699C28.9706 23.4658 28.9658 23.4621 28.9608 23.4588C28.8982 23.4314 28.8116 23.4703 28.7009 23.5749C28.5906 23.6796 28.4993 23.8142 28.4273 23.9776C28.3775 24.0913 28.3566 24.1894 28.3648 24.2719C28.3729 24.3541 28.4081 24.4088 28.4711 24.4366C28.5864 24.4872 28.7103 24.3769 28.8426 24.1051C28.8502 24.0896 28.8582 24.0743 28.8666 24.0592C28.9769 23.832 29.0964 23.6779 29.2235 23.5969C29.3509 23.5159 29.4889 23.5078 29.6368 23.5729C29.79 23.6402 29.8855 23.762 29.9225 23.9383C29.9598 24.1149 29.9303 24.3131 29.8338 24.5327C29.7737 24.6695 29.6875 24.8033 29.5755 24.9345C29.4631 25.0657 29.4051 25.1352 29.4014 25.1434C29.3924 25.1639 29.3886 25.1794 29.3907 25.1909C29.3941 25.2054 29.4012 25.2188 29.4112 25.2298L29.3765 25.2589L29.018 24.8832L29.0527 24.8541ZM28.1423 26.428L27.1785 25.6934C27.1519 25.6729 27.1306 25.6628 27.1155 25.6628C27.1 25.6624 27.0799 25.6727 27.0546 25.6928L27.0182 25.6649L27.393 25.1735L27.4294 25.2013C27.4167 25.2323 27.4131 25.2553 27.4188 25.2704C27.424 25.2851 27.4389 25.3018 27.4629 25.3202L28.4267 26.0548L28.721 25.6685C28.7386 25.6452 28.7467 25.6256 28.745 25.6088C28.7438 25.5921 28.7317 25.5699 28.7086 25.5431L28.7327 25.5113L29.2199 25.8824L29.1959 25.9142C29.1628 25.8987 29.1383 25.8922 29.1226 25.8954C29.1067 25.8979 29.09 25.9113 29.0711 25.9353L28.2001 27.0787C28.1821 27.1023 28.1735 27.1224 28.1751 27.1379C28.1768 27.1538 28.1894 27.1752 28.2141 27.2022L28.1862 27.2386L27.6994 26.8675L27.7268 26.8311C27.7587 26.847 27.7829 26.8531 27.7993 26.8503C27.8156 26.8476 27.8323 26.8344 27.8499 26.8118L28.1423 26.428ZM26.97 27.7903L26.2457 27.3635L26.6655 27.0128L26.97 27.7903ZM25.2442 27.3116L25.2737 27.3468C25.3106 27.3353 25.3506 27.3426 25.3947 27.3692C25.3972 27.37 25.3985 27.3709 25.3991 27.3717L26.7231 28.1471C26.7449 28.1609 26.7643 28.1737 26.7815 28.1856C26.7986 28.1976 26.8093 28.2061 26.8137 28.2114C26.8252 28.2248 26.8309 28.2371 26.8313 28.2478C26.8313 28.2589 26.8252 28.2706 26.8129 28.2838L26.8424 28.3189L27.4677 27.7974L27.4382 27.7618C27.4232 27.7716 27.4104 27.7756 27.3993 27.7742C27.3882 27.7721 27.3773 27.7643 27.3658 27.7509C27.3579 27.7396 27.3513 27.7274 27.3461 27.7145C27.3384 27.6965 27.329 27.675 27.3187 27.6503L26.8191 26.3807L26.8093 26.3533C26.7626 26.2417 26.7501 26.1559 26.7716 26.0969L26.7421 26.0617L26.3158 26.4173L26.3453 26.4525C26.3629 26.4435 26.383 26.4406 26.4025 26.4443C26.4192 26.4477 26.4347 26.4573 26.4483 26.4743C26.4543 26.4814 26.4594 26.4892 26.4638 26.4975C26.4682 26.5065 26.4724 26.5167 26.4761 26.528L26.5502 26.7214L25.9686 27.2066L25.7932 27.0977C25.778 27.089 25.7631 27.0797 25.7486 27.0699C25.7407 27.0639 25.7334 27.0572 25.7269 27.0498C25.7158 27.0368 25.711 27.0236 25.7122 27.0102C25.7135 26.9969 25.72 26.9816 25.7319 26.9644L25.7024 26.9292L25.2442 27.3116ZM18.1635 29.9299L18.1758 29.8857C18.2104 29.8861 18.2342 29.8813 18.2474 29.8719C18.2606 29.8625 18.2709 29.8424 18.2794 29.8131L18.5618 28.8009L18.4004 28.8129C18.3692 28.8158 18.3462 28.8231 18.3318 28.8346C18.3173 28.8461 18.3021 28.8652 18.2866 28.893L18.2424 28.8807L18.3893 28.3549L18.4333 28.3677C18.4311 28.3898 18.4326 28.4122 18.4377 28.4338C18.4419 28.4454 18.4513 28.4531 18.4659 28.4571C18.4732 28.4594 18.4807 28.461 18.4883 28.4619C18.494 28.4619 18.4994 28.4619 18.5055 28.4611L18.662 28.4414L18.68 28.3761C18.6886 28.3455 18.6899 28.3229 18.6836 28.3079C18.6773 28.2932 18.6593 28.2769 18.6296 28.2593L18.6419 28.2151L19.2374 28.3815L19.225 28.4257C19.1909 28.4253 19.1673 28.4295 19.1541 28.4384C19.1411 28.4475 19.13 28.468 19.1212 28.4994L18.7202 29.9361C18.7114 29.9679 18.7102 29.9914 18.7167 30.0056C18.7234 30.0203 18.7414 30.0356 18.7711 30.0519L18.7587 30.096L18.1635 29.9299ZM20.463 29.3351C20.3983 29.3746 20.3104 29.3899 20.1995 29.3805C20.0971 29.3719 20.0176 29.3424 19.9609 29.2913C19.9337 29.2682 19.9126 29.2387 19.8995 29.2055C19.8864 29.1723 19.8817 29.1363 19.8858 29.1009C19.8918 29.0245 19.9264 28.9663 19.9891 28.9259C20.0519 28.8855 20.1336 28.8694 20.2349 28.878C20.3437 28.887 20.4284 28.9169 20.4887 28.9667C20.5494 29.0169 20.5764 29.0795 20.5703 29.1546C20.5634 29.2354 20.5277 29.2955 20.463 29.3351ZM19.3941 30.2193C19.4064 30.2052 19.4206 30.1929 19.4364 30.1829C19.4463 30.1769 19.4579 30.1742 19.4695 30.1751C19.4707 30.1751 19.5364 30.2017 19.6673 30.2549C19.7981 30.308 19.923 30.3394 20.0419 30.3493C20.3257 30.3733 20.5616 30.3039 20.7493 30.1412C20.9368 29.979 21.0427 29.7526 21.0672 29.4627C21.0892 29.199 21.0295 28.9795 20.8878 28.8043C20.7462 28.6293 20.5486 28.5312 20.2955 28.51C20.0555 28.4899 19.8619 28.531 19.7141 28.6327C19.5666 28.7344 19.4848 28.8824 19.4684 29.077C19.4544 29.2455 19.5034 29.3905 19.6158 29.5127C19.728 29.635 19.8755 29.704 20.058 29.7191C20.1583 29.7277 20.2577 29.7162 20.3567 29.6852C20.4594 29.6524 20.5558 29.6023 20.6417 29.5372C20.6277 29.6929 20.5676 29.8131 20.4617 29.8987C20.3558 29.9843 20.2215 30.0201 20.0584 30.0067C19.9484 29.9969 19.842 29.9619 19.7476 29.9045C19.739 29.8997 19.7328 29.8955 19.7288 29.893C19.7001 29.8775 19.6817 29.8643 19.6737 29.8537C19.6656 29.8424 19.662 29.8285 19.6637 29.8147C19.6643 29.8062 19.6658 29.7976 19.6675 29.7894C19.6691 29.7813 19.6719 29.7702 19.6754 29.7564L19.6411 29.7302L19.3552 30.1913L19.3941 30.2193ZM21.7472 30.3231L21.7424 30.2777C21.775 30.2654 21.7955 30.2524 21.8041 30.2388C21.8127 30.225 21.8156 30.2028 21.8123 30.1722L21.7055 29.127L21.5597 29.1969C21.5314 29.2107 21.513 29.226 21.5036 29.2419C21.4942 29.2578 21.4873 29.2815 21.4826 29.3131L21.4372 29.3179L21.3816 28.775L21.4274 28.7702C21.4335 28.7917 21.443 28.8122 21.4556 28.8307C21.4638 28.8397 21.4753 28.8434 21.4904 28.8418C21.5038 28.8414 21.5169 28.8379 21.5287 28.8315L21.6672 28.7555L21.6603 28.6886C21.657 28.6567 21.6497 28.635 21.6386 28.6235C21.6271 28.6115 21.6047 28.6034 21.5708 28.5981L21.5659 28.5523L22.1811 28.4893L22.1854 28.5351C22.1536 28.5471 22.1331 28.5596 22.1241 28.5728C22.1151 28.586 22.1122 28.6092 22.1155 28.6419L22.2673 30.1253C22.271 30.1584 22.2784 30.1806 22.2897 30.1915C22.3008 30.2026 22.3232 30.2103 22.3571 30.2147L22.3615 30.2601L21.7472 30.3231ZM23.1317 28.8087C23.1725 28.6971 23.2482 28.6251 23.3594 28.5921C23.4722 28.5582 23.5764 28.5766 23.672 28.6465C23.7677 28.7164 23.838 28.8267 23.883 28.9772C23.928 29.1276 23.9297 29.258 23.8882 29.3683C23.8468 29.4786 23.7694 29.5506 23.6553 29.5845C23.5446 29.6176 23.4416 29.5996 23.3466 29.5297C23.2518 29.4602 23.1819 29.3499 23.1369 29.1999C23.0923 29.0502 23.0904 28.9198 23.1317 28.8087ZM23.108 29.9119C23.3035 30.0272 23.5245 30.0475 23.771 29.974C24.0197 29.8999 24.1944 29.7605 24.2959 29.5563C24.3974 29.352 24.4083 29.1168 24.329 28.8507C24.2497 28.5847 24.1116 28.3937 23.9142 28.2769C23.7172 28.1607 23.4944 28.1396 23.2455 28.2139C22.9994 28.2875 22.8261 28.4269 22.726 28.632C22.6258 28.8369 22.6157 29.0726 22.6951 29.3384C22.7744 29.6057 22.9121 29.7965 23.108 29.9119ZM16.8391 28.1639L17.1905 28.343L17.4695 28.0638L17.4078 28.4533L17.7594 28.6329L17.3697 28.6946L17.3079 29.0845L17.1288 28.7325L16.7393 28.7942L17.0181 28.5155L16.8391 28.1639ZM25.5347 27.9807L25.1833 28.1599L24.9041 27.8807L24.9663 28.2702L24.6143 28.4497L25.0038 28.5115L25.0659 28.9014L25.2451 28.5494L25.6346 28.6111L25.3558 28.3323L25.5347 27.9807Z" fill="white"/>
</g>
<defs>
<clipPath id="clip0_316_883">
<rect width="40.3421" height="40.3421" fill="white" transform="translate(0.842041 0.131592)"/>
</clipPath>
</defs>
</svg>
